<?xml version="1.0" encoding="UTF-8"?>
<svg id="OBJECTS" xmlns="http://www.w3.org/2000/svg" xmlns:xlink="http://www.w3.org/1999/xlink" viewBox="0 0 150 150">
  <defs>
    <style>
      .cls-1, .cls-2, .cls-3 {
        stroke-linecap: round;
        stroke-linejoin: round;
      }

      .cls-1, .cls-4, .cls-3, .cls-5 {
        stroke-width: 1.8px;
      }

      .cls-1, .cls-6 {
        fill: none;
      }

      .cls-1, .cls-3 {
        stroke: #e63c7c;
      }

      .cls-2 {
        fill: #00a06f;
        stroke-width: 1.54px;
      }

      .cls-2, .cls-4 {
        stroke: #fff;
      }

      .cls-4 {
        fill: #00794e;
      }

      .cls-4, .cls-5 {
        stroke-miterlimit: 10;
      }

      .cls-7 {
        clip-path: url(#clippath);
      }

      .cls-3, .cls-5 {
        fill: #fff;
      }

      .cls-5 {
        stroke: #00794e;
      }
    </style>
    <clipPath id="clippath">
      <rect class="cls-6" width="150" height="150"/>
    </clipPath>
  </defs>
  <g class="cls-7">
    <rect class="cls-2" x="44.61" y="58.67" width="60.77" height="54.24"/>
    <polygon class="cls-4" points="109.74 58.67 40.26 58.67 40.26 49.51 75 41.93 109.74 49.51 109.74 58.67"/>
    <g>
      <rect class="cls-5" x="55.14" y="66.57" width="8.29" height="15.98"/>
      <rect class="cls-5" x="70.85" y="66.57" width="8.29" height="15.98"/>
      <rect class="cls-5" x="86.57" y="66.57" width="8.29" height="15.98"/>
      <rect class="cls-5" x="55.14" y="89.01" width="8.29" height="15.98"/>
      <rect class="cls-5" x="70.85" y="89.01" width="8.29" height="15.98"/>
      <rect class="cls-5" x="86.57" y="89.01" width="8.29" height="15.98"/>
    </g>
    <g>
      <path class="cls-3" d="m75,37.09c-5.19,0-9.41,4.22-9.41,9.41,0,3.53,4.39,11.16,7.29,15.82.98,1.57,3.26,1.57,4.24,0,2.9-4.66,7.29-12.29,7.29-15.82,0-5.19-4.22-9.41-9.41-9.41Z"/>
      <circle class="cls-4" cx="75" cy="46.5" r="5.13" transform="translate(14.76 111) rotate(-78.76)"/>
    </g>
    <line class="cls-1" x1="37.94" y1="112.91" x2="112.06" y2="112.91"/>
  </g>
</svg>